<svg xmlns="http://www.w3.org/2000/svg" aria-hidden="true" viewBox="0 0 240 160"><g fill="var(--canvas-dot, #b8bfc4)"><circle cx="88" cy="40" r="1"/><circle cx="104" cy="40" r="1"/><circle cx="120" cy="40" r="1"/><circle cx="136" cy="40" r="1"/><circle cx="152" cy="40" r="1"/><circle cx="56" cy="56" r="1"/><circle cx="72" cy="56" r="1"/><circle cx="88" cy="56" r="1"/><circle cx="104" cy="56" r="1"/><circle cx="120" cy="56" r="1"/><circle cx="136" cy="56" r="1"/><circle cx="152" cy="56" r="1"/><circle cx="168" cy="56" r="1"/><circle cx="184" cy="56" r="1"/><circle cx="56" cy="72" r="1"/><circle cx="72" cy="72" r="1"/><circle cx="88" cy="72" r="1"/><circle cx="104" cy="72" r="1"/><circle cx="120" cy="72" r="1"/><circle cx="136" cy="72" r="1"/><circle cx="152" cy="72" r="1"/><circle cx="168" cy="72" r="1"/><circle cx="184" cy="72" r="1"/><circle cx="56" cy="88" r="1"/><circle cx="72" cy="88" r="1"/><circle cx="88" cy="88" r="1"/><circle cx="104" cy="88" r="1"/><circle cx="120" cy="88" r="1"/><circle cx="136" cy="88" r="1"/><circle cx="152" cy="88" r="1"/><circle cx="168" cy="88" r="1"/><circle cx="184" cy="88" r="1"/><circle cx="56" cy="104" r="1"/><circle cx="72" cy="104" r="1"/><circle cx="88" cy="104" r="1"/><circle cx="104" cy="104" r="1"/><circle cx="120" cy="104" r="1"/><circle cx="136" cy="104" r="1"/><circle cx="152" cy="104" r="1"/><circle cx="168" cy="104" r="1"/><circle cx="184" cy="104" r="1"/><circle cx="88" cy="120" r="1"/><circle cx="104" cy="120" r="1"/><circle cx="120" cy="120" r="1"/><circle cx="136" cy="120" r="1"/><circle cx="152" cy="120" r="1"/></g><g fill="var(--canvas-dot, #b8bfc4)" opacity=".6"><circle cx="72" cy="24" r="1"/><circle cx="88" cy="24" r="1"/><circle cx="104" cy="24" r="1"/><circle cx="120" cy="24" r="1"/><circle cx="136" cy="24" r="1"/><circle cx="152" cy="24" r="1"/><circle cx="168" cy="24" r="1"/><circle cx="40" cy="40" r="1"/><circle cx="56" cy="40" r="1"/><circle cx="72" cy="40" r="1"/><circle cx="168" cy="40" r="1"/><circle cx="184" cy="40" r="1"/><circle cx="200" cy="40" r="1"/><circle cx="40" cy="56" r="1"/><circle cx="200" cy="56" r="1"/><circle cx="24" cy="72" r="1"/><circle cx="40" cy="72" r="1"/><circle cx="200" cy="72" r="1"/><circle cx="216" cy="72" r="1"/><circle cx="24" cy="88" r="1"/><circle cx="40" cy="88" r="1"/><circle cx="200" cy="88" r="1"/><circle cx="216" cy="88" r="1"/><circle cx="40" cy="104" r="1"/><circle cx="200" cy="104" r="1"/><circle cx="40" cy="120" r="1"/><circle cx="56" cy="120" r="1"/><circle cx="72" cy="120" r="1"/><circle cx="168" cy="120" r="1"/><circle cx="184" cy="120" r="1"/><circle cx="200" cy="120" r="1"/><circle cx="72" cy="136" r="1"/><circle cx="88" cy="136" r="1"/><circle cx="104" cy="136" r="1"/><circle cx="120" cy="136" r="1"/><circle cx="136" cy="136" r="1"/><circle cx="152" cy="136" r="1"/><circle cx="168" cy="136" r="1"/></g><g fill="var(--canvas-dot, #b8bfc4)" opacity=".3"><circle cx="72" cy="8" r="1"/><circle cx="88" cy="8" r="1"/><circle cx="104" cy="8" r="1"/><circle cx="120" cy="8" r="1"/><circle cx="136" cy="8" r="1"/><circle cx="152" cy="8" r="1"/><circle cx="168" cy="8" r="1"/><circle cx="40" cy="24" r="1"/><circle cx="56" cy="24" r="1"/><circle cx="184" cy="24" r="1"/><circle cx="200" cy="24" r="1"/><circle cx="24" cy="40" r="1"/><circle cx="216" cy="40" r="1"/><circle cx="8" cy="56" r="1"/><circle cx="24" cy="56" r="1"/><circle cx="216" cy="56" r="1"/><circle cx="232" cy="56" r="1"/><circle cx="8" cy="72" r="1"/><circle cx="232" cy="72" r="1"/><circle cx="8" cy="88" r="1"/><circle cx="232" cy="88" r="1"/><circle cx="8" cy="104" r="1"/><circle cx="24" cy="104" r="1"/><circle cx="216" cy="104" r="1"/><circle cx="232" cy="104" r="1"/><circle cx="24" cy="120" r="1"/><circle cx="216" cy="120" r="1"/><circle cx="40" cy="136" r="1"/><circle cx="56" cy="136" r="1"/><circle cx="184" cy="136" r="1"/><circle cx="200" cy="136" r="1"/><circle cx="72" cy="152" r="1"/><circle cx="88" cy="152" r="1"/><circle cx="104" cy="152" r="1"/><circle cx="120" cy="152" r="1"/><circle cx="136" cy="152" r="1"/><circle cx="152" cy="152" r="1"/><circle cx="168" cy="152" r="1"/></g><rect width="96" height="64" fill="var(--object-sky, #9ed7f3)" fill-opacity=".55" stroke="var(--fg-2, #6d7277)" stroke-dasharray="4 4" stroke-linecap="round" stroke-linejoin="round" stroke-width="1.5" rx="10" transform="rotate(-6 871.25 -1072.87)"/><g transform="translate(20 28)"><rect width="128" height="32" y="2" fill="var(--object-ink, #1a2026)" opacity=".08" rx="16"/><rect width="128" height="32" fill="var(--bg-1, #fcfeff)" stroke="var(--fg-2, #6d7277)" stroke-linecap="round" stroke-linejoin="round" stroke-width="1.5" rx="16"/><circle cx="18" cy="16" r="5" fill="none" stroke="var(--fg-2, #6d7277)" stroke-linecap="round" stroke-linejoin="round" stroke-width="1.5"/><path stroke="var(--fg-2, #6d7277)" stroke-linecap="round" stroke-linejoin="round" stroke-width="1.5" d="m21.54 19.54 2.82 2.82M36 16h40"/><path stroke="var(--accent, #008adb)" stroke-linecap="round" stroke-width="1.5" d="M82 10v12"/></g></svg>